# Blender 4.0.2
# www.blender.org
mtllib light.mtl
o Cylinder
v 3.038294 -1.000000 0.000000
v -2.858294 -1.000000 -0.000000
v 3.038294 -0.980785 -0.195090
v -2.858294 -0.980785 -0.195090
v 3.038294 -0.923880 -0.382683
v -2.858294 -0.923879 -0.382684
v 3.038294 -0.831470 -0.555570
v -2.858294 -0.831469 -0.555570
v 3.038294 -0.707107 -0.707106
v -2.858294 -0.707107 -0.707107
v 3.038294 -0.555570 -0.831469
v -2.858294 -0.555570 -0.831470
v 3.038294 -0.382684 -0.923879
v -2.858294 -0.382683 -0.923880
v 3.038294 -0.195091 -0.980785
v -2.858294 -0.195090 -0.980785
v 3.038294 -0.000000 -1.000000
v -2.858294 0.000000 -1.000000
v 3.038294 0.195090 -0.980785
v -2.858294 0.195091 -0.980785
v 3.038294 0.382683 -0.923879
v -2.858294 0.382684 -0.923880
v 3.038294 0.555570 -0.831469
v -2.858294 0.555570 -0.831470
v 3.038294 0.707107 -0.707106
v -2.858294 0.707107 -0.707107
v 3.038294 0.831469 -0.555570
v -2.858294 0.831470 -0.555570
v 3.038294 0.923879 -0.382683
v -2.858294 0.923880 -0.382684
v 3.038294 0.980785 -0.195090
v -2.858294 0.980785 -0.195090
v 3.038294 1.000000 0.000000
v -2.858294 1.000000 -0.000000
v 3.038294 0.980785 0.195091
v -2.858294 0.980785 0.195090
v 3.038294 0.923879 0.382684
v -2.858294 0.923880 0.382683
v 3.038294 0.831469 0.555571
v -2.858294 0.831470 0.555570
v 3.038294 0.707107 0.707107
v -2.858294 0.707107 0.707107
v 3.038294 0.555570 0.831470
v -2.858294 0.555570 0.831470
v 3.038294 0.382683 0.923880
v -2.858294 0.382684 0.923879
v 3.038294 0.195090 0.980786
v -2.858294 0.195091 0.980785
v 3.038294 -0.000000 1.000000
v -2.858294 0.000000 1.000000
v 3.038294 -0.195091 0.980786
v -2.858294 -0.195090 0.980785
v 3.038294 -0.382684 0.923880
v -2.858294 -0.382683 0.923879
v 3.038294 -0.555570 0.831470
v -2.858294 -0.555570 0.831470
v 3.038294 -0.707107 0.707107
v -2.858294 -0.707107 0.707107
v 3.038294 -0.831470 0.555571
v -2.858294 -0.831469 0.555570
v 3.038294 -0.923880 0.382684
v -2.858294 -0.923879 0.382683
v 3.038294 -0.980785 0.195091
v -2.858294 -0.980785 0.195090
vn 0.3044 -0.9526 -0.0000
vn -0.3044 -0.9526 -0.0000
vn -0.3044 -0.9343 -0.1858
vn 0.3044 -0.9343 -0.1858
vn -0.3044 -0.8800 -0.3645
vn 0.3044 -0.8800 -0.3645
vn -0.3044 -0.7920 -0.5292
vn 0.3044 -0.7920 -0.5292
vn -0.3044 -0.6736 -0.6736
vn 0.3044 -0.6736 -0.6736
vn -0.3044 -0.5292 -0.7920
vn 0.3044 -0.5292 -0.7920
vn -0.3044 -0.3645 -0.8800
vn 0.3044 -0.3645 -0.8800
vn -0.3044 -0.1858 -0.9343
vn 0.3044 -0.1858 -0.9343
vn -0.3044 -0.0000 -0.9526
vn 0.3044 -0.0000 -0.9526
vn -0.3044 0.1858 -0.9343
vn 0.3044 0.1858 -0.9343
vn -0.3044 0.3645 -0.8800
vn 0.3044 0.3645 -0.8800
vn -0.3044 0.5292 -0.7920
vn 0.3044 0.5292 -0.7920
vn -0.3044 0.6736 -0.6736
vn 0.3044 0.6736 -0.6736
vn -0.3044 0.7920 -0.5292
vn 0.3044 0.7920 -0.5292
vn -0.3044 0.8800 -0.3645
vn 0.3044 0.8800 -0.3645
vn -0.3044 0.9343 -0.1858
vn 0.3044 0.9343 -0.1858
vn -0.3044 0.9526 -0.0000
vn 0.3044 0.9526 -0.0000
vn -0.3044 0.9343 0.1858
vn 0.3044 0.9343 0.1858
vn -0.3044 0.8800 0.3645
vn 0.3044 0.8800 0.3645
vn -0.3044 0.7920 0.5292
vn 0.3044 0.7920 0.5292
vn -0.3044 0.6736 0.6736
vn 0.3044 0.6736 0.6736
vn -0.3044 0.5292 0.7920
vn 0.3044 0.5292 0.7920
vn -0.3044 0.3645 0.8800
vn 0.3044 0.3645 0.8800
vn -0.3044 0.1858 0.9343
vn 0.3044 0.1858 0.9343
vn -0.3044 -0.0000 0.9526
vn 0.3044 -0.0000 0.9526
vn -0.3044 -0.1858 0.9343
vn 0.3044 -0.1858 0.9343
vn -0.3044 -0.3645 0.8800
vn 0.3044 -0.3645 0.8800
vn -0.3044 -0.5292 0.7920
vn 0.3044 -0.5292 0.7920
vn -0.3044 -0.6736 0.6736
vn 0.3044 -0.6736 0.6736
vn -0.3044 -0.7920 0.5292
vn 0.3044 -0.7920 0.5292
vn -0.3044 -0.8800 0.3645
vn 0.3044 -0.8800 0.3645
vn -0.3044 -0.9343 0.1858
vn 0.3044 -0.9343 0.1858
vt 1.000000 0.500000
vt 1.000000 1.000000
vt 0.968750 1.000000
vt 0.968750 0.500000
vt 0.937500 1.000000
vt 0.937500 0.500000
vt 0.906250 1.000000
vt 0.906250 0.500000
vt 0.875000 1.000000
vt 0.875000 0.500000
vt 0.843750 1.000000
vt 0.843750 0.500000
vt 0.812500 1.000000
vt 0.812500 0.500000
vt 0.781250 1.000000
vt 0.781250 0.500000
vt 0.750000 1.000000
vt 0.750000 0.500000
vt 0.718750 1.000000
vt 0.718750 0.500000
vt 0.687500 1.000000
vt 0.687500 0.500000
vt 0.656250 1.000000
vt 0.656250 0.500000
vt 0.625000 1.000000
vt 0.625000 0.500000
vt 0.593750 1.000000
vt 0.593750 0.500000
vt 0.562500 1.000000
vt 0.562500 0.500000
vt 0.531250 1.000000
vt 0.531250 0.500000
vt 0.500000 1.000000
vt 0.500000 0.500000
vt 0.468750 1.000000
vt 0.468750 0.500000
vt 0.437500 1.000000
vt 0.437500 0.500000
vt 0.406250 1.000000
vt 0.406250 0.500000
vt 0.375000 1.000000
vt 0.375000 0.500000
vt 0.343750 1.000000
vt 0.343750 0.500000
vt 0.312500 1.000000
vt 0.312500 0.500000
vt 0.281250 1.000000
vt 0.281250 0.500000
vt 0.250000 1.000000
vt 0.250000 0.500000
vt 0.218750 1.000000
vt 0.218750 0.500000
vt 0.187500 1.000000
vt 0.187500 0.500000
vt 0.156250 1.000000
vt 0.156250 0.500000
vt 0.125000 1.000000
vt 0.125000 0.500000
vt 0.093750 1.000000
vt 0.093750 0.500000
vt 0.062500 1.000000
vt 0.062500 0.500000
vt 0.296822 0.485388
vt 0.250000 0.490000
vt 0.203178 0.485388
vt 0.158156 0.471731
vt 0.116663 0.449553
vt 0.080294 0.419706
vt 0.050447 0.383337
vt 0.028269 0.341844
vt 0.014612 0.296822
vt 0.010000 0.250000
vt 0.014612 0.203178
vt 0.028269 0.158156
vt 0.050447 0.116663
vt 0.080294 0.080294
vt 0.116663 0.050447
vt 0.158156 0.028269
vt 0.203178 0.014612
vt 0.250000 0.010000
vt 0.296822 0.014612
vt 0.341844 0.028269
vt 0.383337 0.050447
vt 0.419706 0.080294
vt 0.449553 0.116663
vt 0.471731 0.158156
vt 0.485388 0.203178
vt 0.490000 0.250000
vt 0.485388 0.296822
vt 0.471731 0.341844
vt 0.449553 0.383337
vt 0.419706 0.419706
vt 0.383337 0.449553
vt 0.341844 0.471731
vt 0.031250 1.000000
vt 0.031250 0.500000
vt 0.000000 1.000000
vt 0.000000 0.500000
vt 0.750000 0.490000
vt 0.796822 0.485388
vt 0.841844 0.471731
vt 0.883337 0.449553
vt 0.919706 0.419706
vt 0.949553 0.383337
vt 0.971731 0.341844
vt 0.985388 0.296822
vt 0.990000 0.250000
vt 0.985388 0.203178
vt 0.971731 0.158156
vt 0.949553 0.116663
vt 0.919706 0.080294
vt 0.883337 0.050447
vt 0.841844 0.028269
vt 0.796822 0.014612
vt 0.750000 0.010000
vt 0.703178 0.014612
vt 0.658156 0.028269
vt 0.616663 0.050447
vt 0.580294 0.080294
vt 0.550447 0.116663
vt 0.528269 0.158156
vt 0.514612 0.203178
vt 0.510000 0.250000
vt 0.514612 0.296822
vt 0.528269 0.341844
vt 0.550447 0.383337
vt 0.580294 0.419706
vt 0.616663 0.449553
vt 0.658156 0.471731
vt 0.703178 0.485388
s 1
usemtl Material
f 1/1/1 2/2/2 4/3/3 3/4/4
f 3/4/4 4/3/3 6/5/5 5/6/6
f 5/6/6 6/5/5 8/7/7 7/8/8
f 7/8/8 8/7/7 10/9/9 9/10/10
f 9/10/10 10/9/9 12/11/11 11/12/12
f 11/12/12 12/11/11 14/13/13 13/14/14
f 13/14/14 14/13/13 16/15/15 15/16/16
f 15/16/16 16/15/15 18/17/17 17/18/18
f 17/18/18 18/17/17 20/19/19 19/20/20
f 19/20/20 20/19/19 22/21/21 21/22/22
f 21/22/22 22/21/21 24/23/23 23/24/24
f 23/24/24 24/23/23 26/25/25 25/26/26
f 25/26/26 26/25/25 28/27/27 27/28/28
f 27/28/28 28/27/27 30/29/29 29/30/30
f 29/30/30 30/29/29 32/31/31 31/32/32
f 31/32/32 32/31/31 34/33/33 33/34/34
f 33/34/34 34/33/33 36/35/35 35/36/36
f 35/36/36 36/35/35 38/37/37 37/38/38
f 37/38/38 38/37/37 40/39/39 39/40/40
f 39/40/40 40/39/39 42/41/41 41/42/42
f 41/42/42 42/41/41 44/43/43 43/44/44
f 43/44/44 44/43/43 46/45/45 45/46/46
f 45/46/46 46/45/45 48/47/47 47/48/48
f 47/48/48 48/47/47 50/49/49 49/50/50
f 49/50/50 50/49/49 52/51/51 51/52/52
f 51/52/52 52/51/51 54/53/53 53/54/54
f 53/54/54 54/53/53 56/55/55 55/56/56
f 55/56/56 56/55/55 58/57/57 57/58/58
f 57/58/58 58/57/57 60/59/59 59/60/60
f 59/60/60 60/59/59 62/61/61 61/62/62
f 4/63/3 2/64/2 64/65/63 62/66/61 60/67/59 58/68/57 56/69/55 54/70/53 52/71/51 50/72/49 48/73/47 46/74/45 44/75/43 42/76/41 40/77/39 38/78/37 36/79/35 34/80/33 32/81/31 30/82/29 28/83/27 26/84/25 24/85/23 22/86/21 20/87/19 18/88/17 16/89/15 14/90/13 12/91/11 10/92/9 8/93/7 6/94/5
f 61/62/62 62/61/61 64/95/63 63/96/64
f 63/96/64 64/95/63 2/97/2 1/98/1
f 1/99/1 3/100/4 5/101/6 7/102/8 9/103/10 11/104/12 13/105/14 15/106/16 17/107/18 19/108/20 21/109/22 23/110/24 25/111/26 27/112/28 29/113/30 31/114/32 33/115/34 35/116/36 37/117/38 39/118/40 41/119/42 43/120/44 45/121/46 47/122/48 49/123/50 51/124/52 53/125/54 55/126/56 57/127/58 59/128/60 61/129/62 63/130/64
o Cylinder.001
v -1.804884 -1.100000 -0.000000
v -2.195117 -1.100000 -0.000000
v -1.804884 -1.078864 -0.214600
v -2.195117 -1.078864 -0.214600
v -1.804884 -1.016267 -0.420952
v -2.195117 -1.016267 -0.420952
v -1.804884 -0.914617 -0.611127
v -2.195117 -0.914617 -0.611127
v -1.804884 -0.777817 -0.777818
v -2.195117 -0.777817 -0.777818
v -1.804883 -0.611127 -0.914617
v -2.195117 -0.611127 -0.914617
v -1.804883 -0.420952 -1.016268
v -2.195117 -0.420952 -1.016268
v -1.804883 -0.214599 -1.078864
v -2.195116 -0.214599 -1.078864
v -1.804883 -0.000000 -1.100000
v -2.195116 0.000000 -1.100000
v -1.804883 0.214599 -1.078864
v -2.195116 0.214599 -1.078864
v -1.804883 0.420952 -1.016268
v -2.195116 0.420952 -1.016268
v -1.804883 0.611127 -0.914617
v -2.195116 0.611127 -0.914617
v -1.804883 0.777817 -0.777818
v -2.195116 0.777817 -0.777818
v -1.804883 0.914617 -0.611127
v -2.195116 0.914617 -0.611127
v -1.804883 1.016267 -0.420952
v -2.195116 1.016267 -0.420952
v -1.804883 1.078864 -0.214600
v -2.195116 1.078864 -0.214600
v -1.804883 1.100000 -0.000000
v -2.195116 1.100000 -0.000000
v -1.804883 1.078864 0.214599
v -2.195116 1.078864 0.214599
v -1.804883 1.016267 0.420952
v -2.195117 1.016267 0.420952
v -1.804883 0.914617 0.611127
v -2.195117 0.914617 0.611127
v -1.804884 0.777817 0.777817
v -2.195117 0.777817 0.777817
v -1.804884 0.611127 0.914616
v -2.195117 0.611127 0.914616
v -1.804884 0.420952 1.016267
v -2.195117 0.420952 1.016267
v -1.804884 0.214599 1.078864
v -2.195117 0.214599 1.078864
v -1.804884 -0.000000 1.100000
v -2.195117 0.000000 1.100000
v -1.804884 -0.214599 1.078864
v -2.195117 -0.214599 1.078864
v -1.804884 -0.420952 1.016267
v -2.195117 -0.420952 1.016267
v -1.804884 -0.611127 0.914616
v -2.195117 -0.611127 0.914616
v -1.804884 -0.777817 0.777817
v -2.195117 -0.777817 0.777817
v -1.804884 -0.914617 0.611127
v -2.195117 -0.914617 0.611127
v -1.804884 -1.016267 0.420952
v -2.195117 -1.016267 0.420952
v -1.804884 -1.078864 0.214599
v -2.195117 -1.078864 0.214599
vn 0.9827 -0.1850 -0.0000
vn -0.9827 -0.1850 -0.0000
vn -0.9827 -0.1815 -0.0361
vn 0.9827 -0.1815 -0.0361
vn -0.9827 -0.1710 -0.0708
vn 0.9827 -0.1710 -0.0708
vn -0.9827 -0.1539 -0.1028
vn 0.9827 -0.1539 -0.1028
vn -0.9827 -0.1308 -0.1308
vn 0.9827 -0.1308 -0.1308
vn -0.9827 -0.1028 -0.1539
vn 0.9827 -0.1028 -0.1539
vn -0.9827 -0.0708 -0.1710
vn 0.9827 -0.0708 -0.1710
vn -0.9827 -0.0361 -0.1815
vn 0.9827 -0.0361 -0.1815
vn -0.9827 -0.0000 -0.1850
vn 0.9827 -0.0000 -0.1850
vn -0.9827 0.0361 -0.1815
vn 0.9827 0.0361 -0.1815
vn -0.9827 0.0708 -0.1710
vn 0.9827 0.0708 -0.1710
vn -0.9827 0.1028 -0.1539
vn 0.9827 0.1028 -0.1539
vn -0.9827 0.1308 -0.1308
vn 0.9827 0.1308 -0.1308
vn -0.9827 0.1539 -0.1028
vn 0.9827 0.1539 -0.1028
vn -0.9827 0.1710 -0.0708
vn 0.9827 0.1710 -0.0708
vn -0.9827 0.1815 -0.0361
vn 0.9827 0.1815 -0.0361
vn -0.9827 0.1850 -0.0000
vn 0.9827 0.1850 -0.0000
vn -0.9827 0.1815 0.0361
vn 0.9827 0.1815 0.0361
vn -0.9827 0.1710 0.0708
vn 0.9827 0.1710 0.0708
vn -0.9827 0.1539 0.1028
vn 0.9827 0.1539 0.1028
vn -0.9827 0.1308 0.1308
vn 0.9827 0.1308 0.1308
vn -0.9827 0.1028 0.1539
vn 0.9827 0.1028 0.1539
vn -0.9827 0.0708 0.1710
vn 0.9827 0.0708 0.1710
vn -0.9827 0.0361 0.1815
vn 0.9827 0.0361 0.1815
vn -0.9827 -0.0000 0.1850
vn 0.9827 -0.0000 0.1850
vn -0.9827 -0.0361 0.1815
vn 0.9827 -0.0361 0.1815
vn -0.9827 -0.0708 0.1710
vn 0.9827 -0.0708 0.1710
vn -0.9827 -0.1028 0.1539
vn 0.9827 -0.1028 0.1539
vn -0.9827 -0.1308 0.1308
vn 0.9827 -0.1308 0.1308
vn -0.9827 -0.1539 0.1028
vn 0.9827 -0.1539 0.1028
vn -0.9827 -0.1710 0.0708
vn 0.9827 -0.1710 0.0708
vn -0.9827 -0.1815 0.0361
vn 0.9827 -0.1815 0.0361
vt 1.000000 0.500000
vt 1.000000 1.000000
vt 0.968750 1.000000
vt 0.968750 0.500000
vt 0.937500 1.000000
vt 0.937500 0.500000
vt 0.906250 1.000000
vt 0.906250 0.500000
vt 0.875000 1.000000
vt 0.875000 0.500000
vt 0.843750 1.000000
vt 0.843750 0.500000
vt 0.812500 1.000000
vt 0.812500 0.500000
vt 0.781250 1.000000
vt 0.781250 0.500000
vt 0.750000 1.000000
vt 0.750000 0.500000
vt 0.718750 1.000000
vt 0.718750 0.500000
vt 0.687500 1.000000
vt 0.687500 0.500000
vt 0.656250 1.000000
vt 0.656250 0.500000
vt 0.625000 1.000000
vt 0.625000 0.500000
vt 0.593750 1.000000
vt 0.593750 0.500000
vt 0.562500 1.000000
vt 0.562500 0.500000
vt 0.531250 1.000000
vt 0.531250 0.500000
vt 0.500000 1.000000
vt 0.500000 0.500000
vt 0.468750 1.000000
vt 0.468750 0.500000
vt 0.437500 1.000000
vt 0.437500 0.500000
vt 0.406250 1.000000
vt 0.406250 0.500000
vt 0.375000 1.000000
vt 0.375000 0.500000
vt 0.343750 1.000000
vt 0.343750 0.500000
vt 0.312500 1.000000
vt 0.312500 0.500000
vt 0.281250 1.000000
vt 0.281250 0.500000
vt 0.250000 1.000000
vt 0.250000 0.500000
vt 0.218750 1.000000
vt 0.218750 0.500000
vt 0.187500 1.000000
vt 0.187500 0.500000
vt 0.156250 1.000000
vt 0.156250 0.500000
vt 0.125000 1.000000
vt 0.125000 0.500000
vt 0.093750 1.000000
vt 0.093750 0.500000
vt 0.062500 1.000000
vt 0.062500 0.500000
vt 0.296822 0.485388
vt 0.250000 0.490000
vt 0.203178 0.485388
vt 0.158156 0.471731
vt 0.116663 0.449553
vt 0.080294 0.419706
vt 0.050447 0.383337
vt 0.028269 0.341844
vt 0.014612 0.296822
vt 0.010000 0.250000
vt 0.014612 0.203178
vt 0.028269 0.158156
vt 0.050447 0.116663
vt 0.080294 0.080294
vt 0.116663 0.050447
vt 0.158156 0.028269
vt 0.203178 0.014612
vt 0.250000 0.010000
vt 0.296822 0.014612
vt 0.341844 0.028269
vt 0.383337 0.050447
vt 0.419706 0.080294
vt 0.449553 0.116663
vt 0.471731 0.158156
vt 0.485388 0.203178
vt 0.490000 0.250000
vt 0.485388 0.296822
vt 0.471731 0.341844
vt 0.449553 0.383337
vt 0.419706 0.419706
vt 0.383337 0.449553
vt 0.341844 0.471731
vt 0.031250 1.000000
vt 0.031250 0.500000
vt 0.000000 1.000000
vt 0.000000 0.500000
vt 0.750000 0.490000
vt 0.796822 0.485388
vt 0.841844 0.471731
vt 0.883337 0.449553
vt 0.919706 0.419706
vt 0.949553 0.383337
vt 0.971731 0.341844
vt 0.985388 0.296822
vt 0.990000 0.250000
vt 0.985388 0.203178
vt 0.971731 0.158156
vt 0.949553 0.116663
vt 0.919706 0.080294
vt 0.883337 0.050447
vt 0.841844 0.028269
vt 0.796822 0.014612
vt 0.750000 0.010000
vt 0.703178 0.014612
vt 0.658156 0.028269
vt 0.616663 0.050447
vt 0.580294 0.080294
vt 0.550447 0.116663
vt 0.528269 0.158156
vt 0.514612 0.203178
vt 0.510000 0.250000
vt 0.514612 0.296822
vt 0.528269 0.341844
vt 0.550447 0.383337
vt 0.580294 0.419706
vt 0.616663 0.449553
vt 0.658156 0.471731
vt 0.703178 0.485388
s 1
usemtl Material.001
f 65/131/65 66/132/66 68/133/67 67/134/68
f 67/134/68 68/133/67 70/135/69 69/136/70
f 69/136/70 70/135/69 72/137/71 71/138/72
f 71/138/72 72/137/71 74/139/73 73/140/74
f 73/140/74 74/139/73 76/141/75 75/142/76
f 75/142/76 76/141/75 78/143/77 77/144/78
f 77/144/78 78/143/77 80/145/79 79/146/80
f 79/146/80 80/145/79 82/147/81 81/148/82
f 81/148/82 82/147/81 84/149/83 83/150/84
f 83/150/84 84/149/83 86/151/85 85/152/86
f 85/152/86 86/151/85 88/153/87 87/154/88
f 87/154/88 88/153/87 90/155/89 89/156/90
f 89/156/90 90/155/89 92/157/91 91/158/92
f 91/158/92 92/157/91 94/159/93 93/160/94
f 93/160/94 94/159/93 96/161/95 95/162/96
f 95/162/96 96/161/95 98/163/97 97/164/98
f 97/164/98 98/163/97 100/165/99 99/166/100
f 99/166/100 100/165/99 102/167/101 101/168/102
f 101/168/102 102/167/101 104/169/103 103/170/104
f 103/170/104 104/169/103 106/171/105 105/172/106
f 105/172/106 106/171/105 108/173/107 107/174/108
f 107/174/108 108/173/107 110/175/109 109/176/110
f 109/176/110 110/175/109 112/177/111 111/178/112
f 111/178/112 112/177/111 114/179/113 113/180/114
f 113/180/114 114/179/113 116/181/115 115/182/116
f 115/182/116 116/181/115 118/183/117 117/184/118
f 117/184/118 118/183/117 120/185/119 119/186/120
f 119/186/120 120/185/119 122/187/121 121/188/122
f 121/188/122 122/187/121 124/189/123 123/190/124
f 123/190/124 124/189/123 126/191/125 125/192/126
f 68/193/67 66/194/66 128/195/127 126/196/125 124/197/123 122/198/121 120/199/119 118/200/117 116/201/115 114/202/113 112/203/111 110/204/109 108/205/107 106/206/105 104/207/103 102/208/101 100/209/99 98/210/97 96/211/95 94/212/93 92/213/91 90/214/89 88/215/87 86/216/85 84/217/83 82/218/81 80/219/79 78/220/77 76/221/75 74/222/73 72/223/71 70/224/69
f 125/192/126 126/191/125 128/225/127 127/226/128
f 127/226/128 128/225/127 66/227/66 65/228/65
f 65/229/65 67/230/68 69/231/70 71/232/72 73/233/74 75/234/76 77/235/78 79/236/80 81/237/82 83/238/84 85/239/86 87/240/88 89/241/90 91/242/92 93/243/94 95/244/96 97/245/98 99/246/100 101/247/102 103/248/104 105/249/106 107/250/108 109/251/110 111/252/112 113/253/114 115/254/116 117/255/118 119/256/120 121/257/122 123/258/124 125/259/126 127/260/128
